<?xml version="1.0" standalone="no"?>
<svg fill="#000000" height="128" width="128" version="1.1" id="_x31_" xmlns="http://www.w3.org/2000/svg" xmlns:xlink="http://www.w3.org/1999/xlink" viewBox="0 0 128 128" xml:space="preserve">
<path id="_x32__26_" d="M120.9,32.6c-1.4-2.7-3.1-4.6-5.1-5.7c-0.1-2.9-1.4-5.3-3.5-7.4c-2.5-2.5-5.8-3.8-9.4-3.8&#10;&#9;C98.8,10.9,88.8,8,80.5,9.3c-4.1-2-9.4-1.9-13-1.9c-0.5,0-0.9,0-1.4,0h-0.5c-4.3,0-11.8-0.1-15.9,3.5c-4-1.6-10.3-0.9-15.4,0.6&#10;&#9;c-6.3,2-10.7,5.1-12.3,8.8c-4.1,1-9.3,4.7-12.4,9.2C7.2,33,4.9,38.3,7,44.9c-2.4,6.2-1.1,12.9,3.5,18.2c4.7,5.5,11.8,7.9,18.1,6.2&#10;&#9;c3.5,0.4,6.1,0.2,7.9-0.2c0.4,3.1,1.6,7.1,5.1,9.9c1.4,3.2,4.1,5.6,7.6,6.6c4,1.1,8.4,0.4,11.7-1.9c1.2-0.1,2.6-0.2,4.1-0.5&#10;&#9;c-0.2,2.5,0,4.8,0.6,6.8c0.2,2.1,2.1,13.4,13.3,18.8c11.4,5.5,10.9,8.8,10.9,9.8c0,3.3,3.8,5.2,7.6,5.3c0.1,0,0.2,0,0.5,0&#10;&#9;c3.8,0,6.6-2.1,6.8-5.2c0.5-6.6-0.6-7.8-5.4-13.4c-1.6-1.9-2.6-5.2-3.2-7.4c2.2-0.5,4.2-1.2,6.1-2.2c2.9,0,5.7-1.1,7.8-3.2&#10;&#9;c2.1-2.1,3.3-4.7,3.5-7.7c6.8-4.7,10.2-15.2,8.2-25.8C124.9,51.6,124.5,39.9,120.9,32.6z M110,81.1c-0.9,0.5-1.4,1.4-1.2,2.2&#10;&#9;c0.1,2.1-0.6,4.1-2,5.5c-1.2,1.2-2.9,1.9-4.5,1.9c-6.6-2.5-6.3-7.8-6.2-8.4c0.1-1.4-0.9-2.6-2.2-2.7s-2.6,0.9-2.7,2.2&#10;&#9;c-0.4,2.6,0.5,7.6,5,11.2c-3.1,0.9-7.1,1.2-12.4,1.2c-6,0-10-1.2-12-3.8c-1.5-1.9-1.9-4.6-1.2-7.9c7.3-1.4,9.7,2,9.8,2.2&#10;&#9;c0.5,0.7,1.2,1.2,2.1,1.2c0.4,0,0.9-0.1,1.2-0.4c1.2-0.6,1.6-2.2,1-3.3c-0.1-0.2-4.3-7.2-16.6-4.3l0,0c-2.5,0.5-4.7,0.7-6.6,0.9&#10;&#9;c-5.3-6.3-1.5-10.8-1-11.3c1-1,0.9-2.6-0.1-3.5c-1-1-2.6-0.9-3.5,0c-2.6,2.6-5.5,9.3-0.2,16.6c-1.7,0.6-3.8,0.7-5.6,0.2&#10;&#9;c-1.6-0.5-3.6-1.5-4.6-4.2c-0.1-0.5-0.5-0.9-0.9-1.1c-4.5-3.3-3.8-9.4-3.7-10.4c0.9-2.5,3.6-8.1,11.3-10.3c3.5-1,6.3-0.4,9.8,0.2&#10;&#9;c1,0.2,2.1,0.4,3.2,0.6c1.2,8.9,10.7,12.3,11,12.5c0.2,0.1,0.5,0.1,0.9,0.1c1,0,2-0.6,2.4-1.6c0.5-1.2-0.2-2.7-1.5-3.1&#10;&#9;c-0.1,0-6.1-2.2-7.6-7.4c8.2-0.2,11.2-6.4,11.5-9.8c0.1-1.4-0.7-2.6-2.1-2.7s-2.6,0.7-2.7,2.1c-0.1,0.5-1,5.5-7.2,5.5&#10;&#9;c-2.5,0-4.7-0.5-6.8-0.9c-3.7-0.7-7.6-1.5-12.1-0.1c-5.7,1.6-9.3,4.8-11.5,7.8c-1.6-2.2-4-3.6-6-4.7c-1.4-0.7-2.7-1.5-3.6-2.5&#10;&#9;c-2.2-2.2,0.4-6.8,0.4-6.8c0.7-1.1,0.4-2.7-0.9-3.3c-1.5-1.1-3-0.7-3.7,0.5c-1.7,3-3.7,8.9,0.4,13c1.4,1.4,3.1,2.4,4.7,3.2&#10;&#9;c3.3,1.9,5.2,3.1,5.2,6.3c-0.6,0.4-2.5,1.4-7.9,0.7c-0.4,0-0.6,0-1,0.1c-4.6,1.4-9.8-0.5-13.5-4.6c-3.6-4.1-4.5-9.3-2.4-13.9&#10;&#9;c0.2-0.6,0.2-1.2,0-1.9c-1.9-5-0.1-9.1,1.7-11.8c1.6-2.4,3.8-4.2,5.7-5.5c0.6,0.4,1.2,0.5,2,0.4c6.3-1.6,10.5,5.7,10.8,6.1&#10;&#9;c0.5,0.9,1.2,1.2,2.1,1.2c0.4,0,0.9-0.1,1.2-0.4c1.2-0.6,1.6-2.2,1-3.3c-0.2-0.4-3.7-6.6-9.9-8.4c0.9-2.4,4.3-4.7,9.3-6.2&#10;&#9;c6.4-2,11.5-1.5,12.6-0.6c3.8,5.5,1.5,8.6-1.5,12.5c-0.6,0.9-1.2,1.6-1.9,2.5c-5,7.4-1.4,13,1.4,15c0.5,0.4,1,0.5,1.5,0.5&#10;&#9;c0.7,0,1.5-0.4,2-1c0.9-1.1,0.6-2.6-0.5-3.5c-0.6-0.5-3.6-3.2-0.1-8.3c0.5-0.7,1.1-1.5,1.6-2.2c2.9-3.7,7.2-9.2,2.6-16.9&#10;&#9;c2.9-2,9.4-2,12.1-1.9h0.5c0.4,0,0.9,0,1.4,0c3.3,0,8.4,0,11.4,1.6c0.5,0.2,1.1,0.4,1.7,0.2C88,12.7,96,15.5,99,18.3&#10;&#9;c-1.4,2.7-3.7,8.8-2.4,14.5c1.5,6.7,1.7,8.4-3.7,10.4c-1.2,0.5-2,1.9-1.5,3.2c0.4,1,1.4,1.6,2.4,1.6c0.2,0,0.6,0,0.9-0.1&#10;&#9;c3.6-1.4,5.7-3.1,6.8-5.1c0.6,0.2,1,0.6,1.4,1.1c1.7,2.2,1.5,6.3,1.4,7.7c-0.2,1.4,0.7,2.6,2.1,2.9c0.1,0,0.2,0,0.4,0&#10;&#9;c1.2,0,2.2-0.9,2.5-2.1c0.1-0.7,1-7.2-2.4-11.5c-1.1-1.5-2.6-2.5-4.3-3.1c-0.1-2-0.5-4.1-1-6.2c-1-4.3,1-9.2,2-11.3&#10;&#9;c2.2,0.1,4.2,1,5.7,2.4c1.5,1.5,2.1,3.5,2,5.5c-0.1,1.2,0.7,2.5,2,2.7c1.2,0.2,2.6,1.6,3.6,3.7c2.9,5.8,3.2,15.9,0.9,21.8&#10;&#9;c0,0.1-0.1,0.1-0.1,0.1c-2.2,3.2-5.1,3.3-9.9,3.3c-1.6,0-3.1,0-4.8,0.1c-7.6,0.7-11.2,8.3-11.3,8.7c-0.6,1.2,0,2.7,1.2,3.3&#10;&#9;c0.4,0.1,0.7,0.2,1,0.2c1,0,1.9-0.5,2.2-1.5c0,0,2.6-5.3,7.3-5.8c1.4-0.1,2.9-0.1,4.3-0.1c3.3,0,6.9,0,10-1.7&#10;&#9;C117.8,71.1,115,78.3,110,81.1z"/>
<path id="_x31__26_" d="M73.9,26.9c0.2-2.6-0.2-4.8-0.2-5.1c-0.2-1.4-1.6-2.1-3-1.9s-2.1,1.6-1.9,3c0,0,1.1,5.5-1.7,7.3&#10;&#9;c-0.5,0.2-1,0.6-1.5,0.9c-4.1,2.5-8.8,5.2-7.7,11.5c0.2,1.2,1.2,2.1,2.5,2.1c0.1,0,0.2,0,0.5,0c1.4-0.2,2.2-1.5,2-2.9&#10;&#9;c-0.5-2.7,1-3.8,5.3-6.4c0.5-0.2,1-0.6,1.5-0.9c1.1-0.6,1.9-1.5,2.5-2.4c7.1-1.2,10.8,4.5,10.9,4.7c0.5,0.7,1.2,1.1,2.1,1.1&#10;&#9;c0.5,0,0.9-0.1,1.2-0.4c1.1-0.7,1.5-2.2,0.9-3.5C85.6,31.4,80.8,26.9,73.9,26.9z"/>
</svg>